# xmcd
#
# Track frame offsets:
#	150
#	19399
#	38035
#	63760
#	77259
#	91642
#	107633
#	119623
#	132683
#	152293
#
# Disc length: 2263 seconds
#
# Revision: 0
# Processed by: cddbd v1.5.2PL0 Copyright (c) Steve Scherf et al.
# Submitted via: EZCDAudioConverter 1.3.4.1
#
DISCID=7008d50a
DTITLE=Lavender Country - Lavender Country (1973)
DYEAR=1900
DGENRE=
TTITLE0=Come Out Singing
TTITLE1=Gypsy John
TTITLE2=Waltzing Will Trilogy
TTITLE3=Georgie Pie
TTITLE4=Cryin' These Cocksucking Tears
TTITLE5=Back In The Closet Again
TTITLE6=I Can't Shake The Stranger Out Of You
TTITLE7=To A Woman
TTITLE8=Straight White Patterns
TTITLE9=Lavender Country
EXTD=
EXTT0=
EXTT1=
EXTT2=
EXTT3=
EXTT4=
EXTT5=
EXTT6=
EXTT7=
EXTT8=
EXTT9=
PLAYORDER=
